<?xml version="1.0" standalone="no"?>
<!DOCTYPE svg PUBLIC "-//W3C//DTD SVG 20010904//EN"
 "http://www.w3.org/TR/2001/REC-SVG-20010904/DTD/svg10.dtd">
<svg version="1.0" xmlns="http://www.w3.org/2000/svg"
 width="320.000000pt" height="385.000000pt" viewBox="0 0 320.000000 385.000000"
 preserveAspectRatio="xMidYMid meet">

<g transform="translate(0.000000,385.000000) scale(0.100000,-0.100000)"
fill="#000000" stroke="none">
<path d="M200 3829 c-59 -24 -145 -101 -176 -160 -13 -24 -19 -55 -19 -106 l0
-72 247 -493 c244 -489 318 -657 396 -898 151 -468 184 -850 112 -1278 -51
-297 -137 -474 -329 -676 -140 -147 -134 -166 33 -100 525 208 1239 738 1698
1261 328 374 515 651 737 1093 203 404 318 751 297 891 -33 223 -353 331 -491
167 -34 -41 -49 -72 -130 -283 -75 -193 -173 -389 -260 -520 -72 -108 -206
-250 -293 -313 -212 -151 -504 -128 -688 53 -104 103 -144 172 -436 740 -256
499 -340 625 -454 681 -76 37 -169 42 -244 13z"/>
<path d="M1590 3514 c-77 -21 -128 -54 -193 -124 -64 -69 -122 -180 -137 -263
-32 -173 80 -395 240 -477 229 -116 517 -26 625 193 78 162 84 285 18 425 -87
185 -348 301 -553 246z"/>
</g>
</svg>
